<?xml version="1.0" encoding="UTF-8"?>
<svg width="351px" height="274px" viewBox="0 0 351 274" version="1.1" xmlns="http://www.w3.org/2000/svg" xmlns:xlink="http://www.w3.org/1999/xlink">
    <!-- Generator: Sketch 47.1 (45422) - http://www.bohemiancoding.com/sketch -->
    <title>Artboard</title>
    <desc>Created with Sketch.</desc>
    <defs></defs>
    <g id="Page-1" stroke="none" stroke-width="1" fill="none" fill-rule="evenodd">
        <g id="Artboard">
            <g id="Group-2" transform="translate(55.000000, 101.000000)">
                <g id="Group-Copy">
                    <circle id="Oval-Copy" fill="#0288C7" cx="6" cy="36" r="6"></circle>
                    <circle id="Oval-Copy-3" fill="#0288C7" cx="6" cy="6" r="6"></circle>
                    <circle id="Oval-Copy-4" fill="#0288C7" cx="36" cy="36" r="6"></circle>
                    <circle id="Oval-Copy-5" fill="#0288C7" cx="36" cy="66" r="6"></circle>
                    <path d="M6.36842105,35 L33.6713792,35" id="Line" stroke="#0288C7" stroke-width="4" stroke-linecap="square"></path>
                    <path d="M6,11.375 L6,34.6733369" id="Line-2" stroke="#0288C7" stroke-width="4" stroke-linecap="square"></path>
                    <path d="M7.37142857,6.37142857 L32.2820771,31.2820771" id="Line-3" stroke="#0288C7" stroke-width="4" stroke-linecap="square"></path>
                    <path d="M8.37142857,37.3714286 L33.2820771,62.2820771" id="Line-3-Copy" stroke="#0288C7" stroke-width="4" stroke-linecap="square"></path>
                </g>
                <path d="M74.6835938,48.7089844 L76.4414062,48.7089844 C78.1640711,48.7089844 79.4355428,48.4218779 80.2558594,47.8476562 C81.076176,47.2734346 81.4863281,46.3710999 81.4863281,45.140625 C81.4863281,43.9218689 81.067387,43.0546901 80.2294922,42.5390625 C79.3915974,42.0234349 78.0937588,41.765625 76.3359375,41.765625 L74.6835938,41.765625 L74.6835938,48.7089844 Z M74.6835938,53.1386719 L74.6835938,63 L69.234375,63 L69.234375,37.3007812 L76.7226562,37.3007812 C80.2148612,37.3007812 82.7988197,37.9365171 84.4746094,39.2080078 C86.150399,40.4794985 86.9882812,42.4101433 86.9882812,45 C86.9882812,46.5117263 86.5722698,47.8564394 85.7402344,49.0341797 C84.908199,50.21192 83.7304764,51.1347623 82.2070312,51.8027344 C86.0742381,57.580107 88.5937441,61.3124916 89.765625,63 L83.71875,63 L77.5839844,53.1386719 L74.6835938,53.1386719 Z M100.716797,46.7929688 C99.5800724,46.7929688 98.6894563,47.1533167 98.0449219,47.8740234 C97.4003874,48.5947302 97.0312505,49.6171809 96.9375,50.9414062 L104.460938,50.9414062 C104.4375,49.6171809 104.0918,48.5947302 103.423828,47.8740234 C102.755856,47.1533167 101.853521,46.7929688 100.716797,46.7929688 Z M101.472656,63.3515625 C98.3085779,63.3515625 95.8359464,62.4785244 94.0546875,60.7324219 C92.2734286,58.9863194 91.3828125,56.5136879 91.3828125,53.3144531 C91.3828125,50.0214679 92.2060465,47.4755949 93.8525391,45.6767578 C95.4990317,43.8779207 97.7753761,42.9785156 100.681641,42.9785156 C103.458998,42.9785156 105.621086,43.7695233 107.167969,45.3515625 C108.714851,46.9336017 109.488281,49.1191267 109.488281,51.9082031 L109.488281,54.5097656 L96.8144531,54.5097656 C96.8730472,56.0332107 97.3242145,57.222652 98.1679688,58.078125 C99.011723,58.933598 100.195305,59.3613281 101.71875,59.3613281 C102.90235,59.3613281 104.021479,59.2382825 105.076172,58.9921875 C106.130865,58.7460925 107.232416,58.3535183 108.380859,57.8144531 L108.380859,61.9628906 C107.443355,62.431643 106.441412,62.7802723 105.375,63.0087891 C104.308588,63.2373058 103.00782,63.3515625 101.472656,63.3515625 Z M131.988281,63 L126.626953,63 L126.626953,51.5214844 C126.626953,50.1035085 126.375003,49.0400426 125.871094,48.3310547 C125.367185,47.6220668 124.564459,47.2675781 123.462891,47.2675781 C121.962883,47.2675781 120.87891,47.7685497 120.210938,48.7705078 C119.542965,49.7724659 119.208984,51.4335821 119.208984,53.7539063 L119.208984,63 L113.847656,63 L113.847656,43.3476562 L117.943359,43.3476562 L118.664062,45.8613281 L118.962891,45.8613281 C119.56055,44.9121046 120.383784,44.1943384 121.432617,43.7080078 C122.481451,43.2216773 123.673821,42.9785156 125.009766,42.9785156 C127.294933,42.9785156 129.029291,43.5966735 130.212891,44.8330078 C131.39649,46.0693421 131.988281,47.853504 131.988281,50.1855469 L131.988281,63 Z M143.730469,63.3515625 C141.421863,63.3515625 139.608405,62.4550871 138.290039,60.6621094 C136.971673,58.8691317 136.3125,56.3847815 136.3125,53.2089844 C136.3125,49.986312 136.983392,47.4755949 138.325195,45.6767578 C139.666999,43.8779207 141.515613,42.9785156 143.871094,42.9785156 C146.343762,42.9785156 148.230462,43.9394435 149.53125,45.8613281 L149.707031,45.8613281 C149.437499,44.3964771 149.302734,43.0898495 149.302734,41.9414062 L149.302734,35.6484375 L154.681641,35.6484375 L154.681641,63 L150.568359,63 L149.53125,60.4511719 L149.302734,60.4511719 C148.083978,62.3847753 146.226575,63.3515625 143.730469,63.3515625 Z M145.611328,59.0800781 C146.982429,59.0800781 147.987301,58.6816446 148.625977,57.8847656 C149.264652,57.0878866 149.613281,55.7343846 149.671875,53.8242188 L149.671875,53.2441406 C149.671875,51.1347551 149.346683,49.6230514 148.696289,48.7089844 C148.045895,47.7949173 146.988289,47.3378906 145.523438,47.3378906 C144.328119,47.3378906 143.399417,47.8447215 142.737305,48.8583984 C142.075192,49.8720754 141.744141,51.3456935 141.744141,53.2792969 C141.744141,55.2129003 142.078122,56.6630811 142.746094,57.6298828 C143.414066,58.5966845 144.369134,59.0800781 145.611328,59.0800781 Z M168.427734,46.7929688 C167.29101,46.7929688 166.400394,47.1533167 165.755859,47.8740234 C165.111325,48.5947302 164.742188,49.6171809 164.648438,50.9414062 L172.171875,50.9414062 C172.148437,49.6171809 171.802738,48.5947302 171.134766,47.8740234 C170.466794,47.1533167 169.564459,46.7929688 168.427734,46.7929688 Z M169.183594,63.3515625 C166.019515,63.3515625 163.546884,62.4785244 161.765625,60.7324219 C159.984366,58.9863194 159.09375,56.5136879 159.09375,53.3144531 C159.09375,50.0214679 159.916984,47.4755949 161.563477,45.6767578 C163.209969,43.8779207 165.486314,42.9785156 168.392578,42.9785156 C171.169936,42.9785156 173.332024,43.7695233 174.878906,45.3515625 C176.425789,46.9336017 177.199219,49.1191267 177.199219,51.9082031 L177.199219,54.5097656 L164.525391,54.5097656 C164.583985,56.0332107 165.035152,57.222652 165.878906,58.078125 C166.72266,58.933598 167.906242,59.3613281 169.429688,59.3613281 C170.613287,59.3613281 171.732417,59.2382825 172.787109,58.9921875 C173.841802,58.7460925 174.943354,58.3535183 176.091797,57.8144531 L176.091797,61.9628906 C175.154292,62.431643 174.152349,62.7802723 173.085938,63.0087891 C172.019526,63.2373058 170.718758,63.3515625 169.183594,63.3515625 Z M192.527344,42.9785156 C193.25391,42.9785156 193.857419,43.0312495 194.337891,43.1367188 L193.933594,48.1640625 C193.499998,48.0468744 192.972659,47.9882812 192.351562,47.9882812 C190.640616,47.9882812 189.307622,48.42773 188.352539,49.3066406 C187.397456,50.1855513 186.919922,51.4160077 186.919922,52.9980469 L186.919922,63 L181.558594,63 L181.558594,43.3476562 L185.619141,43.3476562 L186.410156,46.6523438 L186.673828,46.6523438 C187.283206,45.5507757 188.10644,44.6630893 189.143555,43.9892578 C190.180669,43.3154263 191.308588,42.9785156 192.527344,42.9785156 Z M205.324219,46.7929688 C204.187494,46.7929688 203.296878,47.1533167 202.652344,47.8740234 C202.007809,48.5947302 201.638672,49.6171809 201.544922,50.9414062 L209.068359,50.9414062 C209.044922,49.6171809 208.699222,48.5947302 208.03125,47.8740234 C207.363278,47.1533167 206.460943,46.7929688 205.324219,46.7929688 Z M206.080078,63.3515625 C202.916,63.3515625 200.443368,62.4785244 198.662109,60.7324219 C196.88085,58.9863194 195.990234,56.5136879 195.990234,53.3144531 C195.990234,50.0214679 196.813468,47.4755949 198.459961,45.6767578 C200.106454,43.8779207 202.382798,42.9785156 205.289062,42.9785156 C208.06642,42.9785156 210.228508,43.7695233 211.775391,45.3515625 C213.322273,46.9336017 214.095703,49.1191267 214.095703,51.9082031 L214.095703,54.5097656 L201.421875,54.5097656 C201.480469,56.0332107 201.931636,57.222652 202.775391,58.078125 C203.619145,58.933598 204.802727,59.3613281 206.326172,59.3613281 C207.509772,59.3613281 208.628901,59.2382825 209.683594,58.9921875 C210.738287,58.7460925 211.839838,58.3535183 212.988281,57.8144531 L212.988281,61.9628906 C212.050777,62.431643 211.048833,62.7802723 209.982422,63.0087891 C208.91601,63.2373058 207.615242,63.3515625 206.080078,63.3515625 Z M229.423828,42.9785156 C230.150394,42.9785156 230.753904,43.0312495 231.234375,43.1367188 L230.830078,48.1640625 C230.396482,48.0468744 229.869144,47.9882812 229.248047,47.9882812 C227.537101,47.9882812 226.204106,48.42773 225.249023,49.3066406 C224.293941,50.1855513 223.816406,51.4160077 223.816406,52.9980469 L223.816406,63 L218.455078,63 L218.455078,43.3476562 L222.515625,43.3476562 L223.306641,46.6523438 L223.570312,46.6523438 C224.179691,45.5507757 225.002925,44.6630893 226.040039,43.9892578 C227.077154,43.3154263 228.205072,42.9785156 229.423828,42.9785156 Z" id="Renderer" fill="#000000"></path>
                <path d="M75.890625,17.0234375 L81.7148438,17.0234375 L81.7148438,25.3554688 C80.8085892,25.6445327 79.8867234,25.8632805 78.9492188,26.0117188 C78.0117141,26.160157 76.9257874,26.234375 75.6914062,26.234375 C73.0976433,26.234375 71.0781322,25.4628983 69.6328125,23.9199219 C68.1874928,22.3769454 67.4648438,20.2148577 67.4648438,17.4335938 C67.4648438,15.6523348 67.8222621,14.0918036 68.5371094,12.7519531 C69.2519567,11.4121027 70.2812433,10.3886754 71.625,9.68164062 C72.9687567,8.97460584 74.5429597,8.62109375 76.3476562,8.62109375 C78.1757904,8.62109375 79.8788984,8.95702789 81.4570312,9.62890625 L80.6835938,11.3867188 C79.136711,10.7304655 77.6484446,10.4023438 76.21875,10.4023438 C74.1328021,10.4023438 72.5039121,11.0234313 71.3320312,12.265625 C70.1601504,13.5078187 69.5742188,15.2304577 69.5742188,17.4335938 C69.5742188,19.7461053 70.1386662,21.499994 71.2675781,22.6953125 C72.39649,23.890631 74.0546766,24.4882812 76.2421875,24.4882812 C77.4296934,24.4882812 78.5898381,24.3515639 79.7226562,24.078125 L79.7226562,18.8046875 L75.890625,18.8046875 L75.890625,17.0234375 Z M91.3945312,12.921875 C91.9648466,12.921875 92.4765602,12.9687495 92.9296875,13.0625 L92.6601562,14.8671875 C92.1289036,14.7499994 91.6601583,14.6914062 91.2539062,14.6914062 C90.2148386,14.6914062 89.3261756,15.113277 88.5878906,15.9570312 C87.8496057,16.8007855 87.4804688,17.8515562 87.4804688,19.109375 L87.4804688,26 L85.5351562,26 L85.5351562,13.15625 L87.140625,13.15625 L87.3632812,15.5351562 L87.4570312,15.5351562 C87.9335961,14.6992146 88.5078091,14.0546898 89.1796875,13.6015625 C89.8515659,13.1484352 90.5898397,12.921875 91.3945312,12.921875 Z M102.75,26 L102.363281,24.171875 L102.269531,24.171875 C101.628903,24.9765665 100.990238,25.5214829 100.353516,25.8066406 C99.7167937,26.0917983 98.9218798,26.234375 97.96875,26.234375 C96.6953061,26.234375 95.6972692,25.9062533 94.9746094,25.25 C94.2519495,24.5937467 93.890625,23.6601623 93.890625,22.4492188 C93.890625,19.8554558 95.964823,18.4960944 100.113281,18.3710938 L102.292969,18.3007812 L102.292969,17.5039062 C102.292969,16.4960887 102.076174,15.7519555 101.642578,15.2714844 C101.208982,14.7910132 100.51563,14.5507812 99.5625,14.5507812 C98.4921821,14.5507812 97.2812568,14.878903 95.9296875,15.5351562 L95.3320312,14.046875 C95.9648469,13.7031233 96.6581994,13.4335947 97.4121094,13.2382812 C98.1660194,13.0429678 98.9218712,12.9453125 99.6796875,12.9453125 C101.210945,12.9453125 102.345699,13.2851529 103.083984,13.9648438 C103.822269,14.6445346 104.191406,15.7343675 104.191406,17.234375 L104.191406,26 L102.75,26 Z M98.3554688,24.6289062 C99.5664123,24.6289062 100.517575,24.2968783 101.208984,23.6328125 C101.900394,22.9687467 102.246094,22.0390685 102.246094,20.84375 L102.246094,19.6835938 L100.300781,19.765625 C98.7538985,19.8203128 97.6386753,20.0605447 96.9550781,20.4863281 C96.271481,20.9121115 95.9296875,21.5742143 95.9296875,22.4726562 C95.9296875,23.1757848 96.142576,23.7109357 96.5683594,24.078125 C96.9941428,24.4453143 97.5898399,24.6289062 98.3554688,24.6289062 Z M114.175781,26.234375 C113.33984,26.234375 112.576175,26.0800797 111.884766,25.7714844 C111.193356,25.4628891 110.613284,24.9882845 110.144531,24.3476562 L110.003906,24.3476562 C110.097657,25.09766 110.144531,25.8085904 110.144531,26.4804688 L110.144531,31.765625 L108.199219,31.765625 L108.199219,13.15625 L109.78125,13.15625 L110.050781,14.9140625 L110.144531,14.9140625 C110.644534,14.210934 111.226559,13.7031266 111.890625,13.390625 C112.554691,13.0781234 113.316402,12.921875 114.175781,12.921875 C115.878915,12.921875 117.193355,13.5039004 118.119141,14.6679688 C119.044927,15.8320371 119.507812,17.4648332 119.507812,19.5664062 C119.507812,21.6757918 119.037114,23.3144473 118.095703,24.4824219 C117.154292,25.6503965 115.847665,26.234375 114.175781,26.234375 Z M113.894531,14.5742188 C112.582025,14.5742188 111.632815,14.9374964 111.046875,15.6640625 C110.460935,16.3906286 110.160156,17.5468671 110.144531,19.1328125 L110.144531,19.5664062 C110.144531,21.3711028 110.445309,22.6621055 111.046875,23.4394531 C111.648441,24.2168008 112.613275,24.6054688 113.941406,24.6054688 C115.050787,24.6054688 115.919919,24.1562545 116.548828,23.2578125 C117.177738,22.3593705 117.492188,21.1211016 117.492188,19.5429688 C117.492188,17.9413982 117.177738,16.7128949 116.548828,15.8574219 C115.919919,15.0019488 115.035162,14.5742188 113.894531,14.5742188 Z M131.695312,26 L131.695312,17.6914062 C131.695312,16.644526 131.457034,15.8632838 130.980469,15.3476562 C130.503904,14.8320287 129.757818,14.5742188 128.742188,14.5742188 C127.390618,14.5742188 126.4043,14.9414026 125.783203,15.6757812 C125.162106,16.4101599 124.851562,17.6132729 124.851562,19.2851562 L124.851562,26 L122.90625,26 L122.90625,7.765625 L124.851562,7.765625 L124.851562,13.2851562 C124.851562,13.9492221 124.820313,14.4999978 124.757812,14.9375 L124.875,14.9375 C125.257814,14.3203094 125.802731,13.8339862 126.509766,13.4785156 C127.2168,13.1230451 128.023433,12.9453125 128.929688,12.9453125 C130.500008,12.9453125 131.67773,13.3183556 132.462891,14.0644531 C133.248051,14.8105506 133.640625,15.9960856 133.640625,17.6210938 L133.640625,26 L131.695312,26 Z M152.800781,17.4101562 C152.800781,19.6054797 152.359379,21.4296802 151.476562,22.8828125 C150.593746,24.3359448 149.347664,25.3203099 147.738281,25.8359375 L151.816406,30.078125 L148.921875,30.078125 L145.582031,26.2109375 L144.9375,26.234375 C142.41405,26.234375 140.466804,25.4628983 139.095703,23.9199219 C137.724603,22.3769454 137.039062,20.1992328 137.039062,17.3867188 C137.039062,14.5976423 137.726556,12.4355546 139.101562,10.9003906 C140.476569,9.3652267 142.429675,8.59765625 144.960938,8.59765625 C147.421887,8.59765625 149.343743,9.37889844 150.726562,10.9414062 C152.109382,12.5039141 152.800781,14.6601425 152.800781,17.4101562 Z M139.148438,17.4101562 C139.148438,19.7304804 139.642573,21.4902284 140.630859,22.6894531 C141.619146,23.8886779 143.054678,24.4882812 144.9375,24.4882812 C146.835947,24.4882812 148.269526,23.890631 149.238281,22.6953125 C150.207036,21.499994 150.691406,19.7382929 150.691406,17.4101562 C150.691406,15.1054572 150.208989,13.3574278 149.244141,12.1660156 C148.279292,10.9746034 146.851572,10.3789062 144.960938,10.3789062 C143.062491,10.3789062 141.619146,10.9785096 140.630859,12.1777344 C139.642573,13.3769591 139.148438,15.1210823 139.148438,17.4101562 Z M156.621094,26 L156.621094,8.8671875 L158.613281,8.8671875 L158.613281,24.1953125 L166.171875,24.1953125 L166.171875,26 L156.621094,26 Z M190.183594,17.4101562 C190.183594,19.6054797 189.742192,21.4296802 188.859375,22.8828125 C187.976558,24.3359448 186.730477,25.3203099 185.121094,25.8359375 L189.199219,30.078125 L186.304688,30.078125 L182.964844,26.2109375 L182.320312,26.234375 C179.796862,26.234375 177.849616,25.4628983 176.478516,23.9199219 C175.107415,22.3769454 174.421875,20.1992328 174.421875,17.3867188 C174.421875,14.5976423 175.109368,12.4355546 176.484375,10.9003906 C177.859382,9.3652267 179.812487,8.59765625 182.34375,8.59765625 C184.8047,8.59765625 186.726556,9.37889844 188.109375,10.9414062 C189.492194,12.5039141 190.183594,14.6601425 190.183594,17.4101562 Z M176.53125,17.4101562 C176.53125,19.7304804 177.025386,21.4902284 178.013672,22.6894531 C179.001958,23.8886779 180.437491,24.4882812 182.320312,24.4882812 C184.218759,24.4882812 185.652339,23.890631 186.621094,22.6953125 C187.589849,21.499994 188.074219,19.7382929 188.074219,17.4101562 C188.074219,15.1054572 187.591802,13.3574278 186.626953,12.1660156 C185.662105,10.9746034 184.234384,10.3789062 182.34375,10.3789062 C180.445303,10.3789062 179.001958,10.9785096 178.013672,12.1777344 C177.025386,13.3769591 176.53125,15.1210823 176.53125,17.4101562 Z M195.539062,13.15625 L195.539062,21.4882812 C195.539062,22.5351615 195.777341,23.3164037 196.253906,23.8320312 C196.730471,24.3476588 197.476557,24.6054688 198.492188,24.6054688 C199.835944,24.6054688 200.818356,24.2382849 201.439453,23.5039062 C202.06055,22.7695276 202.371094,21.5703208 202.371094,19.90625 L202.371094,13.15625 L204.316406,13.15625 L204.316406,26 L202.710938,26 L202.429688,24.2773438 L202.324219,24.2773438 C201.925779,24.9101594 201.37305,25.3945296 200.666016,25.7304688 C199.958981,26.0664079 199.152348,26.234375 198.246094,26.234375 C196.683586,26.234375 195.513676,25.863285 194.736328,25.1210938 C193.95898,24.3789025 193.570312,23.1914144 193.570312,21.5585938 L193.570312,13.15625 L195.539062,13.15625 Z M213.867188,26.234375 C211.968741,26.234375 210.470709,25.6562558 209.373047,24.5 C208.275385,23.3437442 207.726562,21.7382915 207.726562,19.6835938 C207.726562,17.6132709 208.236323,15.9687561 209.255859,14.75 C210.275396,13.5312439 211.644523,12.921875 213.363281,12.921875 C214.972664,12.921875 216.246089,13.4511666 217.183594,14.5097656 C218.121098,15.5683647 218.589844,16.9648351 218.589844,18.6992188 L218.589844,19.9296875 L209.742188,19.9296875 C209.78125,21.4375075 210.162106,22.5820273 210.884766,23.3632812 C211.607425,24.1445352 212.624993,24.5351562 213.9375,24.5351562 C215.320319,24.5351562 216.687493,24.2460966 218.039062,23.6679688 L218.039062,25.4023438 C217.351559,25.6992202 216.701175,25.9121087 216.087891,26.0410156 C215.474606,26.1699225 214.734379,26.234375 213.867188,26.234375 Z M213.339844,14.5507812 C212.308589,14.5507812 211.486331,14.8867154 210.873047,15.5585938 C210.259763,16.2304721 209.898438,17.1601503 209.789062,18.3476562 L216.503906,18.3476562 C216.503906,17.1210876 216.230471,16.1816439 215.683594,15.5292969 C215.136716,14.8769499 214.355474,14.5507812 213.339844,14.5507812 Z M227.765625,12.921875 C228.33594,12.921875 228.847654,12.9687495 229.300781,13.0625 L229.03125,14.8671875 C228.499997,14.7499994 228.031252,14.6914062 227.625,14.6914062 C226.585932,14.6914062 225.697269,15.113277 224.958984,15.9570312 C224.220699,16.8007855 223.851562,17.8515562 223.851562,19.109375 L223.851562,26 L221.90625,26 L221.90625,13.15625 L223.511719,13.15625 L223.734375,15.5351562 L223.828125,15.5351562 C224.30469,14.6992146 224.878903,14.0546898 225.550781,13.6015625 C226.22266,13.1484352 226.960933,12.921875 227.765625,12.921875 Z M229.664062,13.15625 L231.75,13.15625 L234.5625,20.4804688 C235.179691,22.1523521 235.562499,23.3593713 235.710938,24.1015625 L235.804688,24.1015625 C235.906251,23.703123 236.119139,23.0214892 236.443359,22.0566406 C236.76758,21.0917921 237.828116,18.1250248 239.625,13.15625 L241.710938,13.15625 L236.191406,27.78125 C235.644529,29.2265697 235.005863,30.2519501 234.275391,30.8574219 C233.544918,31.4628937 232.648443,31.765625 231.585938,31.765625 C230.992185,31.765625 230.406253,31.6992194 229.828125,31.5664062 L229.828125,30.0078125 C230.257815,30.101563 230.738279,30.1484375 231.269531,30.1484375 C232.605475,30.1484375 233.558591,29.398445 234.128906,27.8984375 L234.84375,26.0703125 L229.664062,13.15625 Z" id="GraphQL-Query" fill="#000000"></path>
            </g>
        </g>
    </g>
</svg>
